<svg width="32" height="16" viewBox="0 0 32 16" fill="none" xmlns="http://www.w3.org/2000/svg">
<path d="M24.2001 0C24.2669 0 24.3308 0.0266779 24.3778 0.0740948L31.8067 7.57645C32.0644 7.8368 32.0644 8.25891 31.8067 8.51926L24.4728 15.9259C24.4259 15.9733 24.3619 16 24.2952 16H23.1323C22.9102 16 22.7984 15.732 22.9546 15.5741L28.6676 9.80393C28.9254 9.54357 28.9254 9.12146 28.6676 8.86112C28.5438 8.7361 28.376 8.66587 28.2009 8.66587L0.250008 8.66666C0.111934 8.66666 0 8.55473 0 8.41666V7.58333C0 7.44526 0.111925 7.33333 0.249993 7.33333L28.1058 7.33254C28.4703 7.33253 28.7658 7.03404 28.7658 6.66585C28.7658 6.48904 28.6962 6.31947 28.5725 6.19444L22.8597 0.425915C22.7034 0.268076 22.8152 0 23.0373 0H24.2001Z" fill="#231F20"/>
</svg>
