<svg width="32" height="16" viewBox="0 0 32 16" fill="none" xmlns="http://www.w3.org/2000/svg">
<path d="M7.79987 0C7.73314 0 7.66918 0.0266779 7.62223 0.0740948L0.19331 7.57645C-0.0644363 7.8368 -0.0644363 8.25891 0.19331 8.51926L7.52719 15.9259C7.57414 15.9733 7.6381 16 7.70484 16H8.86771C9.08984 16 9.20165 15.732 9.04537 15.5741L3.33237 9.80393C3.07463 9.54357 3.07464 9.12146 3.3324 8.86112C3.45617 8.7361 3.62405 8.66587 3.79909 8.66587L31.75 8.66666C31.8881 8.66666 32 8.55473 32 8.41666V7.58333C32 7.44526 31.8881 7.33333 31.75 7.33333L3.89419 7.33254C3.52968 7.33253 3.2342 7.03404 3.23421 6.66585C3.23422 6.48904 3.30376 6.31947 3.42754 6.19444L9.14028 0.425915C9.2966 0.268076 9.18479 0 8.96265 0H7.79987Z" fill="#231F20"/>
</svg>
